<svg width="314" height="80" viewBox="0 0 314 80" fill="none" xmlns="http://www.w3.org/2000/svg">
<g filter="url(#filter0_d)">
<path d="M94.8125 18.6211C97.8828 18.6211 101.117 19.3008 104.516 20.6602C113.703 25.793 118.297 33.4922 118.297 43.7578C118.297 47.4609 117.523 51.2344 115.977 55.0781C111.148 64.3594 104.094 69 94.8125 69H83.7734C83.4922 68.8594 83.3516 68.7188 83.3516 68.5781V59.5781C83.4922 59.2969 83.6328 59.1562 83.7734 59.1562H94.6719C96.9688 59.1562 98.9258 58.7461 100.543 57.9258C105.652 54.9023 108.207 50.5898 108.207 44.9883V42.5273C108.207 41.7539 108.113 40.793 107.926 39.6445C105.84 32.0977 101.375 28.3242 94.5312 28.3242H83.7734C83.4922 28.1836 83.3516 28.043 83.3516 27.9023V19.043C83.4922 18.7617 83.6328 18.6211 83.7734 18.6211H94.8125ZM123.289 18.5508H132.289C132.43 18.5508 132.57 18.6914 132.711 18.9727V68.5781C132.711 68.7188 132.57 68.8594 132.289 69H123.289C123.148 69 123.008 68.8594 122.867 68.5781V18.9727C122.867 18.832 123.008 18.6914 123.289 18.5508ZM171.523 18.5508C171.664 18.5508 171.805 18.6914 171.945 18.9727V68.5781C171.945 68.7188 171.805 68.8594 171.523 69H162.523C162.383 69 162.242 68.8594 162.102 68.5781V40.1719H161.961C161.68 40.5469 156.852 49.3828 147.477 66.6797L147.336 66.3984V47.1328C147.336 46.4297 149.984 41.3672 155.281 31.9453C159.57 23.6484 161.984 19.1836 162.523 18.5508H171.523ZM176.938 18.5508H185.938C186.078 18.5508 186.219 18.6914 186.359 18.9727V68.5781C186.359 68.7188 186.219 68.8594 185.938 69H176.938C176.797 69 176.656 68.8594 176.516 68.5781V18.9727C176.516 18.832 176.656 18.6914 176.938 18.5508ZM225.172 18.5508C225.312 18.5508 225.453 18.6914 225.594 18.9727V68.5781C225.594 68.7188 225.453 68.8594 225.172 69H216.172C216.031 69 215.891 68.8594 215.75 68.5781V40.1719H215.609C215.328 40.5469 210.5 49.3828 201.125 66.6797L200.984 66.3984V47.1328C200.984 46.4297 203.633 41.3672 208.93 31.9453C213.219 23.6484 215.633 19.1836 216.172 18.5508H225.172ZM253.016 18.5508H262.121C262.824 18.5508 263.574 19.7695 264.371 22.207C264.652 22.6289 271.52 38.0391 284.973 68.4375C284.902 68.8125 284.527 69 283.848 69H275.023C274.25 69 273.406 67.5469 272.492 64.6406C270.805 60.9844 265.848 49.6406 257.621 30.6094H257.48C249.441 49.3359 243.84 62.0859 240.676 68.8594L239.973 69H231.289C230.773 69 230.398 68.8594 230.164 68.5781C242.117 41.4141 249.5 24.7852 252.312 18.6914L253.016 18.5508ZM298.402 18.5156H307.684C307.824 18.5156 307.965 18.6562 308.105 18.9375V68.5781C308.105 68.7188 307.965 68.8594 307.684 69H299.07C298.391 69 296.75 66.9961 294.148 62.9883C281.047 45.3164 274.297 36.0117 273.898 35.0742V19.8867C273.922 19.6992 274.016 19.6055 274.18 19.6055C289.508 40.5117 297.395 51.1875 297.84 51.6328H297.98V18.9375C297.98 18.7969 298.121 18.6562 298.402 18.5156Z" fill="black"/>
<path d="M104.516 20.6602L105.003 19.7872L104.947 19.7557L104.887 19.7317L104.516 20.6602ZM115.977 55.0781L116.864 55.5396L116.886 55.4965L116.904 55.4515L115.977 55.0781ZM83.7734 69L83.3262 69.8944L83.5374 70H83.7734V69ZM83.3516 59.5781L82.4571 59.1309L82.3516 59.3421V59.5781H83.3516ZM100.543 57.9258L100.995 58.8176L101.024 58.8029L101.052 58.7864L100.543 57.9258ZM107.926 39.6445L108.913 39.4834L108.904 39.4301L108.89 39.3781L107.926 39.6445ZM83.7734 28.3242L83.3262 29.2186L83.5374 29.3242H83.7734V28.3242ZM83.3516 19.043L82.4571 18.5958L82.3516 18.8069V19.043H83.3516ZM94.8125 19.6211C97.7337 19.6211 100.842 20.2676 104.144 21.5886L104.887 19.7317C101.393 18.3339 98.0319 17.6211 94.8125 17.6211V19.6211ZM104.028 21.5332C108.495 24.029 111.8 27.122 113.993 30.7966C116.184 34.4699 117.297 38.7788 117.297 43.7578H119.297C119.297 38.4712 118.112 33.7977 115.71 29.7718C113.309 25.7471 109.723 22.4241 105.003 19.7872L104.028 21.5332ZM117.297 43.7578C117.297 47.3187 116.554 50.9656 115.049 54.7048L116.904 55.4515C118.493 51.5031 119.297 47.6032 119.297 43.7578H117.297ZM115.089 54.6166C112.736 59.1416 109.869 62.4775 106.515 64.6841C103.167 66.8865 99.2779 68 94.8125 68V70C99.6283 70 103.907 68.7932 107.614 66.355C111.314 63.921 114.389 60.2959 116.864 55.5396L115.089 54.6166ZM94.8125 68H83.7734V70H94.8125V68ZM84.2207 68.1056C84.1271 68.0588 84.1275 68.0453 84.1641 68.082C84.2028 68.1206 84.3516 68.2897 84.3516 68.5781H82.3516C82.3516 69.0072 82.5706 69.3169 82.7499 69.4962C82.9272 69.6734 83.1385 69.8006 83.3262 69.8944L84.2207 68.1056ZM84.3516 68.5781V59.5781H82.3516V68.5781H84.3516ZM84.246 60.0253C84.2928 59.9318 84.3062 59.9322 84.2696 59.9688C84.2309 60.0075 84.0619 60.1562 83.7734 60.1562V58.1562C83.3444 58.1562 83.0347 58.3753 82.8554 58.5546C82.6781 58.7319 82.551 58.9432 82.4571 59.1309L84.246 60.0253ZM83.7734 60.1562H94.6719V58.1562H83.7734V60.1562ZM94.6719 60.1562C97.0851 60.1562 99.2056 59.7254 100.995 58.8176L100.091 57.034C98.646 57.7667 96.8524 58.1562 94.6719 58.1562V60.1562ZM101.052 58.7864C106.444 55.5961 109.207 50.9683 109.207 44.9883H107.207C107.207 50.2113 104.861 54.2086 100.034 57.0652L101.052 58.7864ZM109.207 44.9883V42.5273H107.207V44.9883H109.207ZM109.207 42.5273C109.207 41.6803 109.105 40.6614 108.913 39.4834L106.939 39.8057C107.122 40.9246 107.207 41.8275 107.207 42.5273H109.207ZM108.89 39.3781C107.811 35.4752 106.089 32.4446 103.658 30.3905C101.215 28.3259 98.147 27.3242 94.5312 27.3242V29.3242C97.7593 29.3242 100.345 30.2092 102.367 31.9181C104.402 33.6374 105.955 36.2669 106.962 39.9109L108.89 39.3781ZM94.5312 27.3242H83.7734V29.3242H94.5312V27.3242ZM84.2207 27.4298C84.1271 27.383 84.1275 27.3695 84.1641 27.4062C84.2028 27.4449 84.3516 27.6139 84.3516 27.9023H82.3516C82.3516 28.3314 82.5706 28.6411 82.7499 28.8204C82.9272 28.9977 83.1385 29.1248 83.3262 29.2186L84.2207 27.4298ZM84.3516 27.9023V19.043H82.3516V27.9023H84.3516ZM84.246 19.4902C84.2928 19.3966 84.3062 19.397 84.2696 19.4337C84.2309 19.4724 84.0619 19.6211 83.7734 19.6211V17.6211C83.3444 17.6211 83.0347 17.8401 82.8554 18.0195C82.6781 18.1967 82.551 18.4081 82.4571 18.5958L84.246 19.4902ZM83.7734 19.6211H94.8125V17.6211H83.7734V19.6211ZM123.289 18.5508V17.5508H123.053L122.842 17.6564L123.289 18.5508ZM132.711 18.9727H133.711V18.7366L133.605 18.5254L132.711 18.9727ZM132.289 69V70H132.525L132.736 69.8944L132.289 69ZM122.867 68.5781H121.867V68.8142L121.973 69.0253L122.867 68.5781ZM171.945 18.9727H172.945V18.7366L172.84 18.5254L171.945 18.9727ZM171.523 69V70H171.76L171.971 69.8944L171.523 69ZM162.102 68.5781H161.102V68.8142L161.207 69.0253L162.102 68.5781ZM162.102 40.1719H163.102V39.1719H162.102V40.1719ZM161.961 40.1719V39.1719H161.461L161.161 39.5719L161.961 40.1719ZM147.477 66.6797L146.582 67.1269L147.441 68.8442L148.356 67.1562L147.477 66.6797ZM147.336 66.3984H146.336V66.6345L146.442 66.8456L147.336 66.3984ZM155.281 31.9453L156.153 32.4354L156.162 32.4201L156.17 32.4045L155.281 31.9453ZM162.523 18.5508V17.5508H162.062L161.762 17.9023L162.523 18.5508ZM123.289 19.5508H132.289V17.5508H123.289V19.5508ZM132.289 19.5508C132.001 19.5508 131.832 19.402 131.793 19.3634C131.756 19.3267 131.77 19.3263 131.817 19.4199L133.605 18.5254C133.512 18.3378 133.384 18.1264 133.207 17.9491C133.028 17.7698 132.718 17.5508 132.289 17.5508V19.5508ZM131.711 18.9727V68.5781H133.711V18.9727H131.711ZM131.711 68.5781C131.711 68.2897 131.86 68.1206 131.898 68.082C131.935 68.0453 131.935 68.0588 131.842 68.1056L132.736 69.8944C132.924 69.8006 133.135 69.6734 133.313 69.4962C133.492 69.3169 133.711 69.0072 133.711 68.5781H131.711ZM132.289 68H123.289V70H132.289V68ZM123.289 68C123.578 68 123.747 68.1487 123.785 68.1874C123.822 68.2241 123.808 68.2245 123.762 68.1309L121.973 69.0253C122.067 69.213 122.194 69.4244 122.371 69.6016C122.55 69.7809 122.86 70 123.289 70V68ZM123.867 68.5781V18.9727H121.867V68.5781H123.867ZM123.867 18.9727C123.867 19.2611 123.718 19.4301 123.68 19.4688C123.643 19.5055 123.643 19.492 123.736 19.4452L122.842 17.6564C122.654 17.7502 122.443 17.8773 122.266 18.0546C122.086 18.2339 121.867 18.5436 121.867 18.9727H123.867ZM171.523 19.5508C171.235 19.5508 171.066 19.402 171.027 19.3634C170.991 19.3267 171.004 19.3263 171.051 19.4199L172.84 18.5254C172.746 18.3378 172.619 18.1264 172.441 17.9491C172.262 17.7698 171.953 17.5508 171.523 17.5508V19.5508ZM170.945 18.9727V68.5781H172.945V18.9727H170.945ZM170.945 68.5781C170.945 68.2897 171.094 68.1206 171.133 68.082C171.169 68.0453 171.17 68.0588 171.076 68.1056L171.971 69.8944C172.158 69.8006 172.37 69.6734 172.547 69.4962C172.726 69.3169 172.945 69.0072 172.945 68.5781H170.945ZM171.523 68H162.523V70H171.523V68ZM162.523 68C162.812 68 162.981 68.1487 163.02 68.1874C163.056 68.2241 163.043 68.2245 162.996 68.1309L161.207 69.0253C161.301 69.213 161.428 69.4244 161.605 69.6016C161.785 69.7809 162.094 70 162.523 70V68ZM163.102 68.5781V40.1719H161.102V68.5781H163.102ZM162.102 39.1719H161.961V41.1719H162.102V39.1719ZM161.161 39.5719C161.077 39.6833 160.931 39.938 160.773 40.2143C160.593 40.5304 160.343 40.9777 160.023 41.5545C159.383 42.7087 158.459 44.3911 157.251 46.6006C154.836 51.0201 151.285 57.5545 146.597 66.2032L148.356 67.1562C153.043 58.508 156.593 51.976 159.006 47.5596C160.213 45.3511 161.135 43.6732 161.772 42.5246C162.091 41.95 162.337 41.5103 162.511 41.2039C162.708 40.8577 162.774 40.7542 162.761 40.7719L161.161 39.5719ZM148.371 66.2325L148.23 65.9512L146.442 66.8456L146.582 67.1269L148.371 66.2325ZM148.336 66.3984V47.1328H146.336V66.3984H148.336ZM148.336 47.1328C148.336 47.2489 148.309 47.2532 148.398 47.0112C148.468 46.8216 148.58 46.5556 148.741 46.2055C149.062 45.508 149.549 44.5325 150.208 43.2721C151.525 40.7544 153.506 37.1438 156.153 32.4354L154.41 31.4553C151.76 36.1687 149.768 39.8002 148.436 42.345C147.771 43.6159 147.266 44.6268 146.924 45.3707C146.754 45.7413 146.618 46.0598 146.522 46.3184C146.446 46.5247 146.336 46.8409 146.336 47.1328H148.336ZM156.17 32.4045C158.313 28.2579 159.986 25.0739 161.188 22.8496C161.79 21.7369 162.271 20.87 162.633 20.2452C162.814 19.9324 162.962 19.6862 163.078 19.5029C163.136 19.4113 163.184 19.3396 163.221 19.2854C163.24 19.2585 163.255 19.2379 163.267 19.2225C163.272 19.2149 163.277 19.2092 163.28 19.2052C163.283 19.201 163.285 19.1992 163.285 19.1992L161.762 17.9023C161.557 18.1435 161.258 18.6283 160.902 19.2426C160.526 19.8922 160.034 20.7788 159.429 21.8984C158.217 24.139 156.538 27.3359 154.393 31.4861L156.17 32.4045ZM162.523 19.5508H171.523V17.5508H162.523V19.5508ZM176.938 18.5508V17.5508H176.701L176.49 17.6564L176.938 18.5508ZM186.359 18.9727H187.359V18.7366L187.254 18.5254L186.359 18.9727ZM185.938 69V70H186.174L186.385 69.8944L185.938 69ZM176.516 68.5781H175.516V68.8142L175.621 69.0253L176.516 68.5781ZM225.594 18.9727H226.594V18.7366L226.488 18.5254L225.594 18.9727ZM225.172 69V70H225.408L225.619 69.8944L225.172 69ZM215.75 68.5781H214.75V68.8142L214.856 69.0253L215.75 68.5781ZM215.75 40.1719H216.75V39.1719H215.75V40.1719ZM215.609 40.1719V39.1719H215.109L214.809 39.5719L215.609 40.1719ZM201.125 66.6797L200.231 67.1269L201.089 68.8442L202.004 67.1562L201.125 66.6797ZM200.984 66.3984H199.984V66.6345L200.09 66.8456L200.984 66.3984ZM208.93 31.9453L209.801 32.4354L209.81 32.4201L209.818 32.4045L208.93 31.9453ZM216.172 18.5508V17.5508H215.71L215.411 17.9023L216.172 18.5508ZM176.938 19.5508H185.938V17.5508H176.938V19.5508ZM185.938 19.5508C185.649 19.5508 185.48 19.402 185.441 19.3634C185.405 19.3267 185.418 19.3263 185.465 19.4199L187.254 18.5254C187.16 18.3378 187.033 18.1264 186.856 17.9491C186.676 17.7698 186.367 17.5508 185.938 17.5508V19.5508ZM185.359 18.9727V68.5781H187.359V18.9727H185.359ZM185.359 68.5781C185.359 68.2897 185.508 68.1206 185.547 68.082C185.583 68.0453 185.584 68.0588 185.49 68.1056L186.385 69.8944C186.572 69.8006 186.784 69.6734 186.961 69.4962C187.14 69.3169 187.359 69.0072 187.359 68.5781H185.359ZM185.938 68H176.938V70H185.938V68ZM176.938 68C177.226 68 177.395 68.1487 177.434 68.1874C177.47 68.2241 177.457 68.2245 177.41 68.1309L175.621 69.0253C175.715 69.213 175.842 69.4244 176.019 69.6016C176.199 69.7809 176.508 70 176.938 70V68ZM177.516 68.5781V18.9727H175.516V68.5781H177.516ZM177.516 18.9727C177.516 19.2611 177.367 19.4301 177.328 19.4688C177.292 19.5055 177.291 19.492 177.385 19.4452L176.49 17.6564C176.303 17.7502 176.091 17.8773 175.914 18.0546C175.735 18.2339 175.516 18.5436 175.516 18.9727H177.516ZM225.172 19.5508C224.883 19.5508 224.714 19.402 224.676 19.3634C224.639 19.3267 224.653 19.3263 224.699 19.4199L226.488 18.5254C226.394 18.3378 226.267 18.1264 226.09 17.9491C225.911 17.7698 225.601 17.5508 225.172 17.5508V19.5508ZM224.594 18.9727V68.5781H226.594V18.9727H224.594ZM224.594 68.5781C224.594 68.2897 224.742 68.1206 224.781 68.082C224.818 68.0453 224.818 68.0588 224.725 68.1056L225.619 69.8944C225.807 69.8006 226.018 69.6734 226.195 69.4962C226.375 69.3169 226.594 69.0072 226.594 68.5781H224.594ZM225.172 68H216.172V70H225.172V68ZM216.172 68C216.46 68 216.629 68.1487 216.668 68.1874C216.705 68.2241 216.691 68.2245 216.644 68.1309L214.856 69.0253C214.949 69.213 215.077 69.4244 215.254 69.6016C215.433 69.7809 215.743 70 216.172 70V68ZM216.75 68.5781V40.1719H214.75V68.5781H216.75ZM215.75 39.1719H215.609V41.1719H215.75V39.1719ZM214.809 39.5719C214.726 39.6833 214.579 39.938 214.422 40.2143C214.242 40.5304 213.991 40.9777 213.671 41.5545C213.031 42.7087 212.107 44.3911 210.9 46.6006C208.485 51.0201 204.933 57.5545 200.246 66.2032L202.004 67.1562C206.692 58.508 210.242 51.976 212.655 47.5596C213.862 45.3511 214.783 43.6732 215.42 42.5246C215.739 41.95 215.985 41.5103 216.16 41.2039C216.357 40.8577 216.423 40.7542 216.409 40.7719L214.809 39.5719ZM202.019 66.2325L201.879 65.9512L200.09 66.8456L200.231 67.1269L202.019 66.2325ZM201.984 66.3984V47.1328H199.984V66.3984H201.984ZM201.984 47.1328C201.984 47.2489 201.957 47.2532 202.047 47.0112C202.117 46.8216 202.229 46.5556 202.39 46.2055C202.71 45.508 203.197 44.5325 203.857 43.2721C205.174 40.7544 207.154 37.1438 209.801 32.4354L208.058 31.4553C205.408 36.1687 203.416 39.8002 202.085 42.345C201.42 43.6159 200.914 44.6268 200.572 45.3707C200.402 45.7413 200.266 46.0598 200.17 46.3184C200.094 46.5247 199.984 46.8409 199.984 47.1328H201.984ZM209.818 32.4045C211.962 28.2579 213.634 25.0739 214.837 22.8496C215.438 21.7369 215.919 20.87 216.281 20.2452C216.462 19.9324 216.61 19.6862 216.727 19.5029C216.785 19.4113 216.832 19.3396 216.87 19.2854C216.888 19.2585 216.903 19.2379 216.915 19.2225C216.921 19.2149 216.925 19.2092 216.928 19.2052C216.932 19.201 216.933 19.1992 216.933 19.1992L215.411 17.9023C215.205 18.1435 214.907 18.6283 214.551 19.2426C214.174 19.8922 213.683 20.7788 213.077 21.8984C211.866 24.139 210.187 27.3359 208.041 31.4861L209.818 32.4045ZM216.172 19.5508H225.172V17.5508H216.172V19.5508ZM253.016 18.5508V17.5508H252.917L252.82 17.5702L253.016 18.5508ZM264.371 22.207L263.421 22.5178L263.463 22.6479L263.539 22.7617L264.371 22.207ZM284.973 68.4375L285.956 68.6218L286.013 68.3167L285.887 68.0328L284.973 68.4375ZM272.492 64.6406L273.446 64.3406L273.427 64.2796L273.4 64.2216L272.492 64.6406ZM257.621 30.6094L258.539 30.2126L258.278 29.6094H257.621V30.6094ZM257.48 30.6094V29.6094H256.822L256.562 30.2149L257.48 30.6094ZM240.676 68.8594L240.872 69.84L241.368 69.7408L241.582 69.2826L240.676 68.8594ZM239.973 69V70H240.072L240.169 69.9806L239.973 69ZM230.164 68.5781L229.249 68.1754L228.999 68.7424L229.396 69.2183L230.164 68.5781ZM252.312 18.6914L252.116 17.7108L251.618 17.8106L251.405 18.2723L252.312 18.6914ZM253.016 19.5508H262.121V17.5508H253.016V19.5508ZM262.121 19.5508C261.991 19.5508 261.95 19.4914 262.015 19.5455C262.083 19.6032 262.202 19.734 262.359 19.9889C262.673 20.4984 263.031 21.3249 263.421 22.5178L265.322 21.8963C264.915 20.6517 264.499 19.65 264.063 18.9407C263.844 18.5863 263.594 18.26 263.3 18.0131C263.001 17.7626 262.603 17.5508 262.121 17.5508V19.5508ZM263.539 22.7617C263.508 22.7148 263.515 22.7189 263.6 22.8954C263.666 23.032 263.758 23.2286 263.878 23.4875C264.117 24.0045 264.459 24.7565 264.905 25.7453C265.798 27.722 267.102 30.6359 268.819 34.4881C272.252 42.192 277.332 53.6432 284.058 68.8422L285.887 68.0328C279.16 52.8334 274.08 41.3803 270.646 33.674C268.929 29.8211 267.623 26.9035 266.728 24.9222C266.281 23.9319 265.936 23.1734 265.693 22.6481C265.572 22.3859 265.474 22.1785 265.402 22.0282C265.349 21.9177 265.27 21.752 265.203 21.6523L263.539 22.7617ZM283.99 68.2532C284 68.198 284.027 68.1278 284.079 68.0629C284.128 68.0006 284.176 67.9726 284.191 67.965C284.204 67.9589 284.187 67.9692 284.125 67.9803C284.064 67.9911 283.974 68 283.848 68V70C284.257 70 284.699 69.9472 285.086 69.7538C285.521 69.5361 285.856 69.1502 285.956 68.6218L283.99 68.2532ZM283.848 68H275.023V70H283.848V68ZM275.023 68C275.161 68 275.191 68.0671 275.099 67.9837C275.004 67.8991 274.859 67.7246 274.675 67.408C274.309 66.7772 273.896 65.7703 273.446 64.3406L271.538 64.9407C272.003 66.4172 272.468 67.59 272.946 68.4123C273.184 68.8223 273.452 69.1927 273.762 69.4714C274.073 69.7512 274.499 70 275.023 70V68ZM273.4 64.2216C271.719 60.5793 266.768 49.2499 258.539 30.2126L256.703 31.0062C264.927 50.0314 269.89 61.3894 271.584 65.0597L273.4 64.2216ZM257.621 29.6094H257.48V31.6094H257.621V29.6094ZM256.562 30.2149C248.522 48.9428 242.926 61.679 239.77 68.4361L241.582 69.2826C244.753 62.4929 250.361 49.729 258.399 31.0038L256.562 30.2149ZM240.48 67.8788L239.777 68.0194L240.169 69.9806L240.872 69.84L240.48 67.8788ZM239.973 68H231.289V70H239.973V68ZM231.289 68C231.118 68 231.02 67.9762 230.972 67.9582C230.949 67.9497 230.939 67.9427 230.935 67.9405C230.933 67.9385 230.932 67.938 230.932 67.9379L229.396 69.2183C229.889 69.8095 230.603 70 231.289 70V68ZM231.079 68.9809C243.034 41.8132 250.413 25.1941 253.22 19.1105L251.405 18.2723C248.587 24.3762 241.2 41.0149 229.249 68.1754L231.079 68.9809ZM252.509 19.672L253.212 19.5314L252.82 17.5702L252.116 17.7108L252.509 19.672ZM298.402 18.5156V17.5156H298.166L297.955 17.6212L298.402 18.5156ZM308.105 18.9375H309.105V18.7014L309 18.4903L308.105 18.9375ZM307.684 69V70H307.92L308.131 69.8944L307.684 69ZM294.148 62.9883L294.987 62.4438L294.97 62.4177L294.952 62.3927L294.148 62.9883ZM273.898 35.0742H272.898V35.2779L272.978 35.4654L273.898 35.0742ZM273.898 19.8867L272.906 19.7627L272.898 19.8245V19.8867H273.898ZM274.18 19.6055L274.986 19.0142L274.686 18.6055H274.18V19.6055ZM297.84 51.6328L297.133 52.3399L297.426 52.6328H297.84V51.6328ZM297.98 51.6328V52.6328H298.98V51.6328H297.98ZM298.402 19.5156H307.684V17.5156H298.402V19.5156ZM307.684 19.5156C307.395 19.5156 307.226 19.3669 307.187 19.3282C307.151 19.2916 307.164 19.2911 307.211 19.3847L309 18.4903C308.906 18.3026 308.779 18.0913 308.602 17.914C308.422 17.7347 308.113 17.5156 307.684 17.5156V19.5156ZM307.105 18.9375V68.5781H309.105V18.9375H307.105ZM307.105 68.5781C307.105 68.2897 307.254 68.1206 307.293 68.082C307.33 68.0453 307.33 68.0588 307.236 68.1056L308.131 69.8944C308.318 69.8006 308.53 69.6734 308.707 69.4962C308.886 69.3169 309.105 69.0072 309.105 68.5781H307.105ZM307.684 68H299.07V70H307.684V68ZM299.07 68C299.219 68 299.289 68.05 299.249 68.0278C299.218 68.011 299.147 67.9654 299.034 67.8674C298.807 67.6714 298.499 67.3459 298.104 66.8636C297.319 65.9045 296.282 64.438 294.987 62.4438L293.31 63.5328C294.617 65.5464 295.701 67.0857 296.556 68.1306C296.982 68.6501 297.374 69.0761 297.727 69.3811C297.903 69.5336 298.093 69.6758 298.292 69.7843C298.481 69.8874 298.752 70 299.07 70V68ZM294.952 62.3927C288.402 53.5575 283.441 46.8167 280.069 42.1687C278.383 39.8441 277.097 38.0466 276.208 36.7739C275.764 36.1369 275.422 35.6365 275.182 35.2697C275.061 35.0859 274.97 34.9412 274.905 34.8328C274.832 34.7116 274.814 34.672 274.819 34.6831L272.978 35.4654C273.07 35.6818 273.276 36.0097 273.509 36.3663C273.765 36.7568 274.119 37.2752 274.568 37.9185C275.467 39.2063 276.762 41.0153 278.45 43.3431C281.828 47.9997 286.794 54.7471 293.345 63.5838L294.952 62.3927ZM274.898 35.0742V19.8867H272.898V35.0742H274.898ZM274.891 20.0108C274.886 20.0463 274.858 20.2179 274.693 20.3829C274.51 20.566 274.296 20.6055 274.18 20.6055V18.6055C273.899 18.6055 273.556 18.6918 273.279 18.9687C273.02 19.2274 272.934 19.5396 272.906 19.7627L274.891 20.0108ZM273.373 20.1968C281.037 30.6501 286.842 38.5468 290.786 43.8862C292.759 46.5556 294.267 48.5873 295.31 49.9802C295.832 50.6763 296.239 51.2152 296.531 51.5953C296.794 51.938 297.018 52.2251 297.133 52.3399L298.547 50.9257C298.55 50.9292 298.43 50.7852 298.117 50.3773C297.833 50.0066 297.431 49.4751 296.911 48.781C295.871 47.3936 294.366 45.3662 292.395 42.6978C288.453 37.3614 282.65 29.4671 274.986 19.0142L273.373 20.1968ZM297.84 52.6328H297.98V50.6328H297.84V52.6328ZM298.98 51.6328V18.9375H296.98V51.6328H298.98ZM298.98 18.9375C298.98 19.2259 298.832 19.395 298.793 19.4337C298.756 19.4703 298.756 19.4568 298.85 19.4101L297.955 17.6212C297.767 17.715 297.556 17.8422 297.379 18.0195C297.2 18.1988 296.98 18.5084 296.98 18.9375H298.98Z" fill="black"/>
</g>
<g filter="url(#filter1_d)">
<path fill-rule="evenodd" clip-rule="evenodd" d="M4 24.875C4 18.8689 8.86892 14 14.875 14H51.125C57.1313 14 62 18.8689 62 24.875V61.125C62 67.1313 57.1313 72 51.125 72H14.875C14.1242 72 13.3913 71.9239 12.6833 71.7792C7.72777 70.765 4 66.3802 4 61.125V24.875ZM14.875 21.25H51.125C53.1271 21.25 54.75 22.873 54.75 24.875V61.125C54.75 63.1271 53.1271 64.75 51.125 64.75H36.625V50.25C36.625 44.2439 31.7561 39.375 25.75 39.375H11.25V24.875C11.25 22.873 12.873 21.25 14.875 21.25ZM11.25 46.625V61.125C11.25 63.002 12.6764 64.5455 14.5044 64.7311C14.6262 64.7438 14.7499 64.75 14.875 64.75H29.375V50.25C29.375 48.2479 27.752 46.625 25.75 46.625H11.25Z" fill="black"/>
</g>
<defs>
<filter id="filter0_d" x="78.3516" y="17.5156" width="234.754" height="60.4844" filterUnits="userSpaceOnUse" color-interpolation-filters="sRGB">
<feFlood flood-opacity="0" result="BackgroundImageFix"/>
<feColorMatrix in="SourceAlpha" type="matrix" values="0 0 0 0 0 0 0 0 0 0 0 0 0 0 0 0 0 0 127 0"/>
<feOffset dy="4"/>
<feGaussianBlur stdDeviation="2"/>
<feColorMatrix type="matrix" values="0 0 0 0 0 0 0 0 0 0 0 0 0 0 0 0 0 0 0.25 0"/>
<feBlend mode="normal" in2="BackgroundImageFix" result="effect1_dropShadow"/>
<feBlend mode="normal" in="SourceGraphic" in2="effect1_dropShadow" result="shape"/>
</filter>
<filter id="filter1_d" x="0" y="14" width="66" height="66" filterUnits="userSpaceOnUse" color-interpolation-filters="sRGB">
<feFlood flood-opacity="0" result="BackgroundImageFix"/>
<feColorMatrix in="SourceAlpha" type="matrix" values="0 0 0 0 0 0 0 0 0 0 0 0 0 0 0 0 0 0 127 0"/>
<feOffset dy="4"/>
<feGaussianBlur stdDeviation="2"/>
<feColorMatrix type="matrix" values="0 0 0 0 0 0 0 0 0 0 0 0 0 0 0 0 0 0 0.25 0"/>
<feBlend mode="normal" in2="BackgroundImageFix" result="effect1_dropShadow"/>
<feBlend mode="normal" in="SourceGraphic" in2="effect1_dropShadow" result="shape"/>
</filter>
</defs>
</svg>
