<svg width="66" height="66" viewBox="0 0 66 66" fill="none" xmlns="http://www.w3.org/2000/svg">
<g filter="url(#filter0_d)">
<path fill-rule="evenodd" clip-rule="evenodd" d="M4 10.875C4 4.86892 8.86892 0 14.875 0H51.125C57.1313 0 62 4.86892 62 10.875V47.125C62 53.1313 57.1313 58 51.125 58H14.875C14.1242 58 13.3913 57.9239 12.6833 57.7792C7.72777 56.765 4 52.3802 4 47.125V10.875ZM14.875 7.25H51.125C53.1271 7.25 54.75 8.87298 54.75 10.875V47.125C54.75 49.1271 53.1271 50.75 51.125 50.75H36.625V36.25C36.625 30.2439 31.7561 25.375 25.75 25.375H11.25V10.875C11.25 8.87298 12.873 7.25 14.875 7.25ZM11.25 32.625V47.125C11.25 49.002 12.6764 50.5455 14.5044 50.7311C14.6262 50.7438 14.7499 50.75 14.875 50.75H29.375V36.25C29.375 34.2479 27.752 32.625 25.75 32.625H11.25Z" fill="black"/>
</g>
<defs>
<filter id="filter0_d" x="0" y="0" width="66" height="66" filterUnits="userSpaceOnUse" color-interpolation-filters="sRGB">
<feFlood flood-opacity="0" result="BackgroundImageFix"/>
<feColorMatrix in="SourceAlpha" type="matrix" values="0 0 0 0 0 0 0 0 0 0 0 0 0 0 0 0 0 0 127 0"/>
<feOffset dy="4"/>
<feGaussianBlur stdDeviation="2"/>
<feColorMatrix type="matrix" values="0 0 0 0 0 0 0 0 0 0 0 0 0 0 0 0 0 0 0.25 0"/>
<feBlend mode="normal" in2="BackgroundImageFix" result="effect1_dropShadow"/>
<feBlend mode="normal" in="SourceGraphic" in2="effect1_dropShadow" result="shape"/>
</filter>
</defs>
</svg>
